<svg version="1.1" viewBox="0.0 0.0 839.7217847769028 359.5301837270341" fill="none" stroke="none" stroke-linecap="square" stroke-miterlimit="10" xmlns:xlink="http://www.w3.org/1999/xlink" xmlns="http://www.w3.org/2000/svg"><clipPath id="p.0"><path d="m0 0l839.7218 0l0 359.53018l-839.7218 0l0 -359.53018z" clip-rule="nonzero"/></clipPath><g clip-path="url(#p.0)"><path fill="#000000" fill-opacity="0.0" d="m0 0l839.7218 0l0 359.53018l-839.7218 0z" fill-rule="evenodd"/><path fill="#ffe599" d="m4.1837273 65.8699l0 0c0 -31.375042 25.434496 -56.809536 56.809536 -56.809536l709.5305 0c15.0668335 0 29.51654 5.9852734 40.17041 16.639128c10.65387 10.653852 16.6391 25.103582 16.6391 40.17041l0 227.23132c0 31.37503 -25.434448 56.80954 -56.80951 56.80954l-709.5305 0c-31.37504 0 -56.809536 -25.43451 -56.809536 -56.80954z" fill-rule="evenodd"/><path stroke="#000000" stroke-width="8.0" stroke-linejoin="round" stroke-linecap="butt" d="m4.1837273 65.8699l0 0c0 -31.375042 25.434496 -56.809536 56.809536 -56.809536l709.5305 0c15.0668335 0 29.51654 5.9852734 40.17041 16.639128c10.65387 10.653852 16.6391 25.103582 16.6391 40.17041l0 227.23132c0 31.37503 -25.434448 56.80954 -56.80951 56.80954l-709.5305 0c-31.37504 0 -56.809536 -25.43451 -56.809536 -56.80954z" fill-rule="evenodd"/><path fill="#6d9eeb" d="m95.695595 81.1794c6.5307083 0 12.439789 2.531395 17.727242 7.594185c5.302452 5.047806 7.9536743 11.765732 7.9536743 20.153778c0 8.373077 -2.6287613 15.046059 -7.8862686 20.018974c-5.242523 4.9579315 -11.129135 7.436905 -17.659836 7.436905c-6.5307007 0 -12.447266 -2.5538483 -17.74971 -7.6615753c-5.2874603 -5.107727 -7.931198 -11.750771 -7.931198 -19.929108c0 -8.193329 2.6212692 -14.843857 7.8637924 -19.951576c5.257515 -5.1077194 11.151604 -7.661583 17.682304 -7.661583zm-0.4268875 -24.445168c-6.35096 0 -12.514671 1.288166 -18.491158 3.8644943c-5.9764786 2.5763283 -11.271446 6.118782 -15.884865 10.6273575c-4.5984535 4.5085754 -8.2757225 10.103104 -11.03178 16.783585c-2.7560806 6.6655045 -4.1341095 13.81781 -4.1341095 21.456932c0 13.990059 4.8980217 26.047882 14.694065 36.173462c9.796043 10.125565 21.689087 15.1883545 35.67916 15.1883545c13.990074 0 25.770782 -5.1302032 35.342148 -15.390579c9.571365 -10.260376 14.35704 -22.685165 14.35704 -37.274384c0 -14.5892105 -5.0178375 -26.804306 -15.053558 -36.645287c-10.020714 -9.855957 -21.84636 -14.783936 -35.476944 -14.783936z" fill-rule="evenodd"/><path fill="#6d9eeb" d="m190.59134 110.1631c3.549942 0 6.4258423 1.2207565 8.627701 3.6622849c2.216858 2.4415207 3.3252716 5.1826096 3.3252716 8.223282c0 3.0256882 -1.175827 5.7368164 -3.527481 8.133415c-2.351654 2.396576 -5.2050934 3.5948792 -8.560303 3.5948792c-3.3552094 0 -6.1187744 -1.2207642 -8.290695 -3.6622925c-2.1569214 -2.441513 -3.235382 -5.1301804 -3.235382 -8.066002c0 -2.950798 1.0559998 -5.669426 3.167984 -8.155876c2.1269836 -2.4864655 4.957947 -3.7296906 8.492905 -3.7296906zm-25.209091 -23.748657c-4.8680725 0 -7.9461823 1.2432251 -9.234329 3.729683c-0.644104 1.2881622 -1.0335388 2.441513 -1.1683502 3.4600677c-0.13479614 1.0035706 -0.20220947 2.5613556 -0.20220947 4.67334l0 80.63761c0 2.1119843 0.06741333 3.6697693 0.20220947 4.67334c0.1348114 1.0185547 0.5467224 2.1719055 1.2357483 3.4600677c0.6890259 1.2881622 1.8873138 2.2093506 3.5948792 2.763565c1.7075653 0.5541992 3.984314 0.8313141 6.830261 0.8313141c2.8609161 0 5.115204 -0.27711487 6.762863 -0.8313141c1.6626282 -0.5542145 2.8384552 -1.4978638 3.527481 -2.8309631c0.6890259 -1.3331146 1.1009216 -2.5089417 1.235733 -3.527481c0.1348114 -1.0035706 0.20220947 -2.5688324 0.20220947 -4.695801l0 -27.882782c3.4151459 4.2389526 8.889847 6.358444 16.424103 6.358444c7.54924 0 14.656616 -3.54245 21.322128 -10.627365c6.680481 -7.0849 10.020721 -15.323166 10.020721 -24.714783c0 -9.391617 -3.3627167 -17.629875 -10.088135 -24.714783c-6.710449 -7.0849 -13.81781 -10.6273575 -21.322113 -10.6273575c-7.489319 0 -12.986496 2.3965912 -16.4915 7.1897583c-0.2696228 -2.3965912 -1.2582092 -4.2164993 -2.9657745 -5.4597244c-1.7075653 -1.2432251 -5.002884 -1.8648376 -9.885925 -1.8648376z" fill-rule="evenodd"/><path fill="#6d9eeb" d="m272.03345 106.70303c2.9957275 0 5.2949524 0.6440811 6.8976746 1.9322433c1.6176758 1.2881622 2.4265442 2.9957352 2.4265442 5.1227036c0 2.9358215 -1.7450256 4.4037247 -5.2350464 4.4037247l-17.41269 0c0 -2.756073 1.4754028 -5.3548737 4.426178 -7.7963943c2.9508057 -2.4415207 5.9165955 -3.6622772 8.897339 -3.6622772zm0.35949707 -21.793945c-11.234009 0 -20.603165 3.4750443 -28.107468 10.42514c-7.489334 6.9351196 -11.233994 16.199425 -11.233994 27.7929c0 9.211876 2.8983765 17.54 8.695114 24.984398c2.9358063 3.8794708 7.047455 6.9950256 12.33493 9.346695c5.3024445 2.33667 11.353806 3.505005 18.154129 3.505005c19.607056 0 29.410583 -4.0966797 29.410583 -12.289993c0 -1.7525024 -0.5991211 -3.871994 -1.7974243 -6.358444c-2.1119995 -4.1341095 -4.6433716 -6.2011566 -7.5941772 -6.2011566c-1.467926 0 -3.3027954 0.5092621 -5.504669 1.5278168l-1.527832 0.53923035c-3.0406494 1.108429 -7.2272034 1.6626282 -12.559601 1.6626282c-3.0406494 0 -6.0813293 -0.8762512 -9.121979 -2.6287537c-3.0256958 -1.7525024 -4.5385437 -3.916916 -4.5385437 -6.4932404l32.71338 0c3.400177 0 6.5007324 -1.3555756 9.301758 -4.0667114c2.815979 -2.7111282 4.2239685 -6.897667 4.2239685 -12.559601c0 -5.661934 -1.5652466 -10.881996 -4.695801 -15.660187c-5.976471 -9.017151 -15.360596 -13.525726 -28.152374 -13.525726z" fill-rule="evenodd"/><path fill="#6d9eeb" d="m326.35004 86.414444c-5.7967224 0 -9.339203 1.1533508 -10.62735 3.4600677c-0.73394775 1.2881622 -1.168335 2.4639816 -1.3031311 3.5274734c-0.13482666 1.0485077 -0.20223999 2.5838165 -0.20223999 4.605934l0 48.867874c0 2.1119843 0.06741333 3.6997223 0.20223999 4.763214c0.13479614 1.0634918 0.52423096 2.284256 1.168335 3.6622772c1.288147 2.4864502 4.830597 3.7296906 10.62735 3.7296906c5.901581 0 9.444031 -1.2432404 10.62735 -3.7296906c0.7489319 -1.2881622 1.1907959 -2.4564972 1.3256226 -3.505005c0.13479614 -1.0634918 0.20220947 -2.6587067 0.20220947 -4.785675l0 -24.422707c0 -3.5948792 1.1233826 -6.493248 3.3701782 -8.6951065c2.2617798 -2.2168503 5.2051086 -3.325264 8.829926 -3.325264c3.6398315 0 6.5381775 1.0634842 8.695129 3.1904526c2.1719055 2.111992 3.257843 5.055298 3.257843 8.829918l0 24.287895c0 3.130539 0.2770996 5.482193 0.83132935 7.054947c1.0185242 3.4001617 4.793152 5.100235 11.323853 5.100235c5.886627 0 9.473999 -1.2432404 10.7621765 -3.7296906c0.6440735 -1.2881622 1.0335083 -2.4564972 1.168335 -3.505005c0.14978027 -1.0634918 0.22467041 -2.6587067 0.22467041 -4.785675l0 -24.287895c0 -10.12558 -3.0631409 -18.708351 -9.189392 -25.748314c-6.1262817 -7.0399704 -13.787872 -10.559952 -22.984772 -10.559952c-3.7746277 0 -7.2272034 1.0559921 -10.357727 3.167984c-1.1983032 0.7489319 -2.4415283 1.7225418 -3.7297058 2.9208374c-1.288147 1.1833115 -2.111969 2.0970154 -2.471466 2.7410965c0 -2.2018661 -0.46432495 -4.08918 -1.3930054 -5.661934c-1.2881775 -2.111992 -4.740753 -3.167984 -10.357758 -3.167984z" fill-rule="evenodd"/><path fill="#6d9eeb" d="m476.54166 82.280334c3.04068 0 5.317444 0.4643402 6.8302917 1.393013c1.5278015 0.9136963 2.2917175 2.523903 2.2917175 4.830612c0 2.2917404 -0.14230347 3.939392 -0.42687988 4.9429626c-0.7339783 1.9322433 -2.9358215 2.8983688 -6.605591 2.8983688c-3.9693604 0 -6.8078003 0.6515732 -8.515381 1.9547119c-1.6925659 1.2881622 -2.5388794 3.9319 -2.5388794 7.931198c0 3.9993057 0.823822 6.6430435 2.4714966 7.9312057c1.6626282 1.2881622 4.1490784 1.9322433 7.4593506 1.9322433c3.3252563 0 5.9016113 0.36697388 7.729004 1.1009293c1.1982727 0.5542145 2.052063 1.4754028 2.5613403 2.763565c0.50927734 1.2881699 0.763916 3.0406723 0.763916 5.2575073c0 6.2461014 -2.8983765 9.369148 -8.695099 9.369148l-22.647736 0l0 -52.305466zm-31.45517 -24.445175c-5.901581 0 -9.49646 1.2432327 -10.784637 3.7296867c-0.73394775 1.3780365 -1.168335 2.5763283 -1.3031311 3.5948753c-0.13482666 1.0185547 -0.20220947 2.6287613 -0.20220947 4.83062l0 76.61583c0 3.2204285 0.2770996 5.6095276 0.8312988 7.1672974c1.0934448 3.505005 4.860565 5.2575073 11.301392 5.2575073l36.30829 0c8.747528 0 16.17694 -3.108078 22.288239 -9.324219c6.126251 -6.2161407 9.279266 -13.922653 9.459015 -23.119553c0 -8.013588 -2.7111206 -15.240791 -8.133423 -21.68161c3.4900513 -5.0627823 5.2350464 -10.6273575 5.2350464 -16.693718c0 -8.37307 -2.9882202 -15.547844 -8.964722 -21.52433c-5.7068787 -5.9015884 -12.791779 -8.852386 -21.2547 -8.852386z" fill-rule="evenodd"/><path fill="#6d9eeb" d="m556.2586 110.56753c3.6398315 0 6.538208 1.2881622 8.695129 3.8644943c2.171875 2.576332 3.2578735 5.3623505 3.2578735 8.358086c0 2.9957352 -1.1309204 5.7368393 -3.3927002 8.2232895c-2.2467651 2.4864502 -5.077759 3.7296753 -8.49292 3.7296753c-3.4001465 0 -6.298523 -1.2207642 -8.695068 -3.6622772c-2.3816528 -2.441513 -3.5724487 -5.1826096 -3.5724487 -8.223282c0 -3.0406723 1.1234131 -5.849167 3.3702393 -8.425491c2.2617798 -2.576332 5.205078 -3.8644943 8.829895 -3.8644943zm23.816101 -24.153084c-6.710449 0 -10.342773 2.5763245 -10.897034 7.728981c-0.64404297 -0.9136963 -1.4753418 -1.8498688 -2.4938965 -2.8084946c-1.0036011 -0.9736099 -2.793518 -2.0146255 -5.369873 -3.1230545c-2.576294 -1.1084137 -5.4297485 -1.6626282 -8.560303 -1.6626282c-8.193298 0 -15.720093 3.6173477 -22.580322 10.8520355c-6.845215 7.2197113 -10.267883 15.637718 -10.267883 25.25402c0 9.6163025 3.4001465 18.064255 10.2005005 25.343887c6.8152466 7.2646484 14.199768 10.896973 22.153442 10.896973c7.968628 0 13.653015 -2.441513 17.053162 -7.3245544c0.28460693 2.396576 1.2731934 4.2164764 2.9657593 5.459717c1.7075806 1.2432251 5.0703125 1.8648376 10.088135 1.8648376c5.0178833 0 8.170837 -1.198288 9.459045 -3.5948792c0.644104 -1.3780365 1.0335083 -2.5988007 1.168335 -3.6622772c0.13482666 -1.0634918 0.20220947 -2.6512299 0.20220947 -4.763214l0 -48.306175c0 -2.1269684 -0.06738281 -3.7147064 -0.20220947 -4.7632065c-0.13482666 -1.0634842 -0.5541992 -2.2842484 -1.2582397 -3.6622849c-0.6890259 -1.3780365 -1.909729 -2.344162 -3.6622314 -2.8983688c-1.7375488 -0.5542145 -4.4037476 -0.8313141 -7.998596 -0.8313141z" fill-rule="evenodd"/><path fill="#6d9eeb" d="m616.37897 86.414444c-5.796753 0 -9.339233 1.1533508 -10.62738 3.4600677c-0.73394775 1.2881622 -1.168335 2.4639816 -1.3031616 3.5274734c-0.13476562 1.0485077 -0.20220947 2.5838165 -0.20220947 4.605934l0 48.867874c0 2.1119843 0.06744385 3.6997223 0.20220947 4.763214c0.13482666 1.0634918 0.524292 2.284256 1.168335 3.6622772c1.288208 2.4864502 4.8306274 3.7296906 10.62738 3.7296906c5.9016113 0 9.444031 -1.2432404 10.62738 -3.7296906c0.74890137 -1.2881622 1.1907959 -2.4564972 1.3255615 -3.505005c0.13482666 -1.0634918 0.20227051 -2.6587067 0.20227051 -4.785675l0 -24.422707c0 -3.5948792 1.123352 -6.493248 3.3701782 -8.6951065c2.2617798 -2.2168503 5.205078 -3.325264 8.829895 -3.325264c3.6398315 0 6.538208 1.0634842 8.695129 3.1904526c2.171936 2.111992 3.2578735 5.055298 3.2578735 8.829918l0 24.287895c0 3.130539 0.2770996 5.482193 0.8312988 7.054947c1.0185547 3.4001617 4.793152 5.100235 11.323853 5.100235c5.8865967 0 9.473999 -1.2432404 10.762146 -3.7296906c0.644104 -1.2881622 1.0335693 -2.4564972 1.168335 -3.505005c0.14984131 -1.0634918 0.22473145 -2.6587067 0.22473145 -4.785675l0 -24.287895c0 -10.12558 -3.0631714 -18.708351 -9.189453 -25.748314c-6.1262817 -7.0399704 -13.787842 -10.559952 -22.984741 -10.559952c-3.7745972 0 -7.227173 1.0559921 -10.357727 3.167984c-1.1983032 0.7489319 -2.4415283 1.7225418 -3.7296753 2.9208374c-1.288147 1.1833115 -2.1119995 2.0970154 -2.4714966 2.7410965c0 -2.2018661 -0.46435547 -4.08918 -1.3930054 -5.661934c-1.288147 -2.111992 -4.7407227 -3.167984 -10.357727 -3.167984z" fill-rule="evenodd"/><path fill="#6d9eeb" d="m700.0332 52.17323c-5.8865967 0 -9.473999 1.2432289 -10.762207 3.7296867c-0.64404297 1.3780365 -1.0335083 2.5987968 -1.168335 3.662281c-0.13476562 1.0634842 -0.20220947 2.6512222 -0.20220947 4.7632103l0 82.6822c0 2.1269684 0.06744385 3.7221832 0.20220947 4.785675c0.13482666 1.0485077 0.524292 2.2617798 1.168335 3.6398163c1.288208 2.4864502 4.8306274 3.7296906 10.62738 3.7296906c5.9016113 0 9.444092 -1.1983032 10.62738 -3.5948792c0.74890137 -1.3780365 1.1907959 -2.5913086 1.3256226 -3.6398163c0.13476562 -1.0634918 0.20220947 -2.658722 0.20220947 -4.785675l0 -10.627365c2.3067017 1.8423767 5.6619263 4.9504547 10.065613 9.324219c4.418701 4.373764 7.6915894 7.436905 9.8185425 9.189407l1.3705444 0.9661255c3.5948486 2.6661835 6.4033813 3.999298 8.425476 3.999298c2.3966064 0 5.1601562 -1.932251 8.29071 -5.7967377c2.8459473 -3.7746277 4.268921 -6.7703705 4.268921 -8.987198c0 -0.9136963 -0.29956055 -1.8723297 -0.8987427 -2.8759003c-0.5991211 -1.0185547 -2.0445557 -2.4939575 -4.3363037 -4.426193l-18.378845 -15.188362l13.683044 -11.593483c3.4001465 -2.8609238 5.1002197 -5.3473816 5.1002197 -7.4593735c0 -2.111992 -1.4978638 -5.0328293 -4.4935913 -8.762512c-2.980774 -3.7296906 -5.6245117 -5.594528 -7.9312134 -5.594528c-2.3067017 0 -5.0703125 1.2432251 -8.29071 3.729683l-1.6401367 1.1009293c-1.6626587 1.3780365 -4.17157 3.7296906 -7.5267944 7.054947c-3.3552246 3.3102875 -5.8641357 5.654442 -7.5267334 7.032486l0 -43.76764c0 -1.7525063 -0.04498291 -3.0406685 -0.13482666 -3.8644943c-0.089904785 -2.756073 -0.9212036 -4.7781906 -2.4939575 -6.0663567c-1.8423462 -1.5727615 -4.9729004 -2.3591385 -9.391602 -2.3591385z" fill-rule="evenodd"/><path fill="#000000" fill-opacity="0.0" d="m45.730972 200.73491l708.56696 0l0 67.87401l-708.56696 0z" fill-rule="evenodd"/><path fill="#000000" d="m202.83476 248.1349l0 -28.640625l10.734375 0q3.28125 0 5.265625 0.875q1.984375 0.875 3.109375 2.6875q1.125 1.796875 1.125 3.765625q0 1.84375 -1.0 3.46875q-1.0 1.609375 -3.015625 2.609375q2.609375 0.765625 4.0 2.609375q1.390625 1.828125 1.390625 4.328125q0 2.0 -0.84375 3.734375q-0.84375 1.734375 -2.09375 2.671875q-1.25 0.9375 -3.140625 1.421875q-1.890625 0.46875 -4.625 0.46875l-10.90625 0zm3.78125 -16.609375l6.1875 0q2.53125 0 3.625 -0.328125q1.4375 -0.421875 2.171875 -1.421875q0.734375 -1.0 0.734375 -2.5q0 -1.421875 -0.6875 -2.5q-0.6875 -1.09375 -1.953125 -1.484375q-1.265625 -0.40625 -4.359375 -0.40625l-5.71875 0l0 8.640625zm0 13.234375l7.125 0q1.84375 0 2.578125 -0.140625q1.3125 -0.234375 2.1875 -0.78125q0.890625 -0.546875 1.453125 -1.59375q0.5625 -1.046875 0.5625 -2.40625q0 -1.609375 -0.828125 -2.78125q-0.8125 -1.1875 -2.265625 -1.65625q-1.453125 -0.484375 -4.1875 -0.484375l-6.625 0l0 9.84375zm36.132812 0.8125q-1.953125 1.65625 -3.765625 2.34375q-1.796875 0.6875 -3.875 0.6875q-3.40625 0 -5.25 -1.671875q-1.828125 -1.671875 -1.828125 -4.265625q0 -1.53125 0.6875 -2.78125q0.6875 -1.265625 1.8125 -2.015625q1.125 -0.765625 2.53125 -1.15625q1.03125 -0.28125 3.125 -0.53125q4.265625 -0.515625 6.265625 -1.21875q0.03125 -0.71875 0.03125 -0.90625q0 -2.15625 -1.0 -3.03125q-1.34375 -1.1875 -4.0 -1.1875q-2.484375 0 -3.671875 0.875q-1.171875 0.859375 -1.75 3.0625l-3.4375 -0.46875q0.46875 -2.203125 1.546875 -3.5625q1.078125 -1.359375 3.109375 -2.09375q2.03125 -0.734375 4.703125 -0.734375q2.65625 0 4.3125 0.625q1.671875 0.625 2.453125 1.578125q0.78125 0.953125 1.09375 2.390625q0.171875 0.90625 0.171875 3.25l0 4.6875q0 4.890625 0.21875 6.203125q0.234375 1.296875 0.890625 2.484375l-3.671875 0q-0.546875 -1.09375 -0.703125 -2.5625zm-0.296875 -7.84375q-1.90625 0.78125 -5.734375 1.328125q-2.171875 0.3125 -3.078125 0.703125q-0.890625 0.390625 -1.375 1.140625q-0.484375 0.75 -0.484375 1.671875q0 1.40625 1.0625 2.34375q1.0625 0.9375 3.109375 0.9375q2.03125 0 3.609375 -0.890625q1.59375 -0.890625 2.328125 -2.4375q0.5625 -1.1875 0.5625 -3.515625l0 -1.28125zm9.011719 10.40625l0 -20.75l3.15625 0l0 2.953125q2.2968597 -3.421875 6.6093597 -3.421875q1.875 0 3.4375 0.6875q1.578125 0.671875 2.359375 1.765625q0.78125 1.09375 1.09375 2.59375q0.203125 0.96875 0.203125 3.421875l0 12.75l-3.515625 0l0 -12.625q0 -2.140625 -0.421875 -3.203125q-0.40625 -1.0625 -1.453125 -1.703125q-1.046875 -0.640625 -2.453125 -0.640625q-2.234375 0 -3.875 1.4375q-1.6249847 1.421875 -1.6249847 5.40625l0 11.328125l-3.515625 0zm22.261703 0l0 -28.640625l3.515625 0l0 16.328125l8.328125 -8.4375l4.546875 0l-7.9375 7.703125l8.734375 13.046875l-4.328125 0l-6.859375 -10.609375l-2.484375 2.390625l0 8.21875l-3.515625 0zm20.0 -24.59375l0 -4.046875l3.515625 0l0 4.046875l-3.515625 0zm0 24.59375l0 -20.75l3.515625 0l0 20.75l-3.515625 0zm8.871094 0l0 -20.75l3.15625 0l0 2.953125q2.296875 -3.421875 6.609375 -3.421875q1.875 0 3.4375 0.6875q1.578125 0.671875 2.359375 1.765625q0.78125 1.09375 1.09375 2.59375q0.203125 0.96875 0.203125 3.421875l0 12.75l-3.515625 0l0 -12.625q0 -2.140625 -0.421875 -3.203125q-0.40625 -1.0625 -1.453125 -1.703125q-1.046875 -0.640625 -2.453125 -0.640625q-2.234375 0 -3.875 1.4375q-1.625 1.421875 -1.625 5.40625l0 11.328125l-3.515625 0zm21.605469 1.71875l3.40625 0.515625q0.21875 1.578125 1.203125 2.296875q1.296875 0.984375 3.5625 0.984375q2.453125 0 3.78125 -0.984375q1.328125 -0.96875 1.796875 -2.734375q0.265625 -1.078125 0.25 -4.515625q-2.3125 2.71875 -5.75 2.71875q-4.265625 0 -6.609375 -3.078125q-2.34375 -3.09375 -2.34375 -7.40625q0 -2.96875 1.0625 -5.484375q1.078125 -2.515625 3.109375 -3.875q2.046875 -1.375 4.8125 -1.375q3.671875 0 6.046875 2.96875l0 -2.5l3.25 0l0 17.9375q0 4.84375 -1.0 6.859375q-0.984375 2.03125 -3.125 3.203125q-2.125 1.1718903 -5.25 1.1718903q-3.71875 0 -6.0 -1.6718903q-2.28125 -1.671875 -2.203125 -5.03125zm2.90625 -12.46875q0 4.09375 1.609375 5.96875q1.625 1.875 4.078125 1.875q2.421875 0 4.0625 -1.859375q1.640625 -1.875 1.640625 -5.859375q0 -3.8125 -1.703125 -5.734375q-1.6875 -1.9375 -4.0625 -1.9375q-2.34375 0 -3.984375 1.90625q-1.640625 1.890625 -1.640625 5.640625zm31.546875 10.75l0 -28.640625l9.859375 0q3.34375 0 5.09375 0.421875q2.46875 0.5625 4.203125 2.046875q2.265625 1.90625 3.390625 4.890625q1.125 2.984375 1.125 6.8125q0 3.25 -0.765625 5.78125q-0.765625 2.515625 -1.953125 4.171875q-1.1875 1.640625 -2.609375 2.59375q-1.421875 0.9375 -3.421875 1.4375q-2.0 0.484375 -4.59375 0.484375l-10.328125 0zm3.78125 -3.375l6.109375 0q2.84375 0 4.453125 -0.53125q1.609375 -0.53125 2.5625 -1.484375q1.34375 -1.34375 2.09375 -3.625q0.765625 -2.28125 0.765625 -5.515625q0 -4.5 -1.484375 -6.90625q-1.46875 -2.40625 -3.578125 -3.234375q-1.53125 -0.578125 -4.90625 -0.578125l-6.015625 0l0 21.875zm38.85547 -3.3125l3.625 0.453125q-0.859375 3.1875 -3.1875 4.953125q-2.3125 1.75 -5.9375 1.75q-4.546875 0 -7.21875 -2.796875q-2.65625 -2.8125 -2.65625 -7.875q0 -5.234375 2.6875 -8.125q2.703125 -2.890625 7.0 -2.890625q4.15625 0 6.796875 2.84375q2.640625 2.828125 2.640625 7.96875q0 0.3125 -0.03125 0.9375l-15.46875 0q0.203125 3.40625 1.9375 5.234375q1.734375 1.8125 4.34375 1.8125q1.921875 0 3.28125 -1.015625q1.375 -1.015625 2.1875 -3.25zm-11.546875 -5.671875l11.578125 0q-0.234375 -2.625 -1.328125 -3.9375q-1.671875 -2.03125 -4.359375 -2.03125q-2.421875 0 -4.078125 1.625q-1.640625 1.625 -1.8125 4.34375zm33.121094 4.765625l3.453125 0.4375q-0.5625 3.578125 -2.90625 5.609375q-2.328125 2.015625 -5.71875 2.015625q-4.265625 0 -6.859375 -2.78125q-2.578125 -2.78125 -2.578125 -7.984375q0 -3.359375 1.109375 -5.875q1.125 -2.515625 3.390625 -3.78125q2.28125 -1.265625 4.953125 -1.265625q3.375 0 5.515625 1.71875q2.15625 1.703125 2.765625 4.84375l-3.421875 0.53125q-0.484375 -2.09375 -1.734375 -3.140625q-1.234375 -1.0625 -2.984375 -1.0625q-2.65625 0 -4.328125 1.90625q-1.65625 1.90625 -1.65625 6.03125q0 4.171875 1.59375 6.078125q1.609375 1.890625 4.1875 1.890625q2.078125 0 3.453125 -1.265625q1.390625 -1.28125 1.765625 -3.90625zm20.671875 0.90625l3.625 0.453125q-0.859375 3.1875 -3.1875 4.953125q-2.3125 1.75 -5.9375 1.75q-4.546875 0 -7.21875 -2.796875q-2.65625 -2.8125 -2.65625 -7.875q0 -5.234375 2.6875 -8.125q2.703125 -2.890625 7.0 -2.890625q4.15625 0 6.796875 2.84375q2.640625 2.828125 2.640625 7.96875q0 0.3125 -0.03125 0.9375l-15.46875 0q0.203125 3.40625 1.9375 5.234375q1.734375 1.8125 4.34375 1.8125q1.921875 0 3.28125 -1.015625q1.375 -1.015625 2.1875 -3.25zm-11.546875 -5.671875l11.578125 0q-0.234375 -2.625 -1.328125 -3.9375q-1.671875 -2.03125 -4.359375 -2.03125q-2.421875 0 -4.078125 1.625q-1.640625 1.625 -1.8125 4.34375zm19.589844 12.359375l0 -20.75l3.15625 0l0 2.953125q2.296875 -3.421875 6.609375 -3.421875q1.875 0 3.4375 0.6875q1.578125 0.671875 2.359375 1.765625q0.78125 1.09375 1.09375 2.59375q0.203125 0.96875 0.203125 3.421875l0 12.75l-3.515625 0l0 -12.625q0 -2.140625 -0.421875 -3.203125q-0.40625 -1.0625 -1.453125 -1.703125q-1.046875 -0.640625 -2.453125 -0.640625q-2.234375 0 -3.875 1.4375q-1.625 1.421875 -1.625 5.40625l0 11.328125l-3.515625 0zm29.917969 -3.140625l0.515625 3.09375q-1.484375 0.328125 -2.65625 0.328125q-1.921875 0 -2.984375 -0.609375q-1.046875 -0.609375 -1.484375 -1.59375q-0.421875 -0.984375 -0.421875 -4.15625l0 -11.9375l-2.578125 0l0 -2.734375l2.578125 0l0 -5.125l3.5 -2.109375l0 7.234375l3.53125 0l0 2.734375l-3.53125 0l0 12.140625q0 1.5 0.1875 1.9375q0.1875 0.421875 0.59375 0.671875q0.421875 0.25 1.203125 0.25q0.59375 0 1.546875 -0.125zm3.3945312 3.140625l0 -20.75l3.171875 0l0 3.15625q1.203125 -2.21875 2.234375 -2.921875q1.03125 -0.703125 2.25 -0.703125q1.78125 0 3.625 1.140625l-1.21875 3.265625q-1.28125 -0.765625 -2.578125 -0.765625q-1.15625 0 -2.078125 0.703125q-0.90625 0.6875 -1.296875 1.90625q-0.59375 1.875 -0.59375 4.109375l0 10.859375l-3.515625 0zm26.898438 -2.5625q-1.953125 1.65625 -3.765625 2.34375q-1.796875 0.6875 -3.875 0.6875q-3.40625 0 -5.25 -1.671875q-1.828125 -1.671875 -1.828125 -4.265625q0 -1.53125 0.6875 -2.78125q0.6875 -1.265625 1.8125 -2.015625q1.125 -0.765625 2.53125 -1.15625q1.03125 -0.28125 3.125 -0.53125q4.265625 -0.515625 6.265625 -1.21875q0.03125 -0.71875 0.03125 -0.90625q0 -2.15625 -1.0 -3.03125q-1.34375 -1.1875 -4.0 -1.1875q-2.484375 0 -3.671875 0.875q-1.171875 0.859375 -1.75 3.0625l-3.4375 -0.46875q0.46875 -2.203125 1.546875 -3.5625q1.078125 -1.359375 3.109375 -2.09375q2.03125 -0.734375 4.703125 -0.734375q2.65625 0 4.3125 0.625q1.6719055 0.625 2.4531555 1.578125q0.78125 0.953125 1.09375 2.390625q0.171875 0.90625 0.171875 3.25l0 4.6875q0 4.890625 0.21875 6.203125q0.234375 1.296875 0.890625 2.484375l-3.671875 0q-0.5469055 -1.09375 -0.7031555 -2.5625zm-0.296875 -7.84375q-1.90625 0.78125 -5.734375 1.328125q-2.171875 0.3125 -3.078125 0.703125q-0.890625 0.390625 -1.375 1.140625q-0.484375 0.75 -0.484375 1.671875q0 1.40625 1.0625 2.34375q1.0625 0.9375 3.109375 0.9375q2.03125 0 3.609375 -0.890625q1.59375 -0.890625 2.328125 -2.4375q0.5625 -1.1875 0.5625 -3.515625l0 -1.28125zm8.933624 10.40625l0 -28.640625l3.515625 0l0 28.640625l-3.515625 0zm8.980469 -24.59375l0 -4.046875l3.515625 0l0 4.046875l-3.515625 0zm0 24.59375l0 -20.75l3.515625 0l0 20.75l-3.515625 0zm7.0117188 0l0 -2.859375l13.203125 -15.15625q-2.25 0.125 -3.96875 0.125l-8.453125 0l0 -2.859375l16.953125 0l0 2.328125l-11.234375 13.171875l-2.15625 2.390625q2.359375 -0.171875 4.421875 -0.171875l9.59375 0l0 3.03125l-18.359375 0zm36.06244 -6.6875l3.625 0.453125q-0.859375 3.1875 -3.1875 4.953125q-2.3125 1.75 -5.9375 1.75q-4.546875 0 -7.21875 -2.796875q-2.656189 -2.8125 -2.656189 -7.875q0 -5.234375 2.687439 -8.125q2.703125 -2.890625 7.0 -2.890625q4.15625 0 6.796875 2.84375q2.640625 2.828125 2.640625 7.96875q0 0.3125 -0.03125 0.9375l-15.46875 0q0.203125 3.40625 1.9375 5.234375q1.734375 1.8125 4.34375 1.8125q1.921875 0 3.28125 -1.015625q1.375 -1.015625 2.1875 -3.25zm-11.546875 -5.671875l11.578125 0q-0.234375 -2.625 -1.328125 -3.9375q-1.671875 -2.03125 -4.359375 -2.03125q-2.421875 0 -4.078125 1.625q-1.640625 1.625 -1.8125 4.34375zm33.04297 12.359375l0 -2.625q-1.96875 3.09375 -5.796875 3.09375q-2.484375 0 -4.5625 -1.359375q-2.078125 -1.375 -3.21875 -3.828125q-1.140625 -2.453125 -1.140625 -5.640625q0 -3.09375 1.03125 -5.625q1.03125 -2.53125 3.09375 -3.875q2.078125 -1.359375 4.640625 -1.359375q1.875 0 3.328125 0.796875q1.46875 0.796875 2.390625 2.0625l0 -10.28125l3.5 0l0 28.640625l-3.265625 0zm-11.109375 -10.359375q0 3.984375 1.671875 5.96875q1.6875 1.96875 3.96875 1.96875q2.3125 0 3.921875 -1.875q1.609375 -1.890625 1.609375 -5.765625q0 -4.25 -1.640625 -6.234375q-1.640625 -2.0 -4.046875 -2.0q-2.34375 0 -3.921875 1.921875q-1.5625 1.90625 -1.5625 6.015625z" fill-rule="nonzero"/></g></svg>